<?xml version="1.0" encoding="utf-8"?>
<!-- Generator: Adobe Illustrator 25.3.0, SVG Export Plug-In . SVG Version: 6.00 Build 0)  -->
<svg version="1.1" xmlns="http://www.w3.org/2000/svg" xmlns:xlink="http://www.w3.org/1999/xlink" x="0px" y="0px"
	 viewBox="0 0 558.38 416.69" style="enable-background:new 0 0 558.38 416.69;" xml:space="preserve">
<style type="text/css">
	.st0{display:none;}
	.st1{fill-rule:evenodd;clip-rule:evenodd;fill:#6F2C91;}
	.st2{fill-rule:evenodd;clip-rule:evenodd;fill:#E32726;}
	.st3{fill-rule:evenodd;clip-rule:evenodd;fill:#FCAF17;}
	.st4{fill-rule:evenodd;clip-rule:evenodd;fill:#2AAA9E;}
	.st5{display:none;fill:#A9A3A1;}
	.st6{font-family:'MyriadPro-Regular';}
	.st7{font-size:16.9144px;}
</style>
<g id="Background_xA0_Image_1_" class="st0">
</g>
<g id="Layer_1_xA0_Image_1_">
	<path class="st1" d="M214.01,189.28c20.06,15.2,38.81,24.83,54.06,32.57c21.89,11.11,41.75,18.54,66.39,27.12
		c0.01,12.17,0,57.17,0,80.34c-21.45-5.88-41.92-12.41-77.29-30.84c-22.62-11.66-36.94-23.53-42.88-29.24
		c-0.08-0.07-0.18-0.11-0.27-0.16C214.01,242.47,214.01,215.87,214.01,189.28z"/>
	<path class="st2" d="M344.59,223.57c-7.03,5.65-18.93,11.65-28.37,15.26c-13.8-5.42-24.16-9.95-35.47-15.36
		c-12.39-5.93-29.32-15.35-39.24-22.43c23.56-7.34,39.18-14.67,53.8-22.19c20.86-10.72,33.87-19.59,49.28-29.97
		C344.59,162.45,344.59,205.78,344.59,223.57z"/>
	<path class="st3" d="M237.86,196.31c0-7.13-0.08-56.73-0.08-64.7c16.74-4.43,32.41-9.47,44.1-15.11
		c9.22-4.44,17.98-9.72,26.66-15.13c1.4-0.87,2.99-1.9,4.5-2.86c0,13.64-0.11,54.33-0.11,65.71c-10.22,7.51-22.77,14.02-36.62,19.75
		C265.87,188.29,250.86,193.48,237.86,196.31z"/>
	<path class="st4" d="M257.43,61.42c6.2,3.4,13.9,7.17,20.77,10.25c6.53,2.93,14.53,5.61,14.53,5.61s0,26.4,0,30.52
		c-3.06,2.04-7.65,4.26-11.02,5.69c-7.57,3.37-16.82,5.64-24.55,7.41C257.16,113.73,257.43,68.5,257.43,61.42z"/>
	<text transform="matrix(1 0 0 1 227.3277 344.1128)" class="st5 st6 st7">B    A    R    O    U</text>
</g>
</svg>
